<?xml version="1.0" standalone="no"?>
<!DOCTYPE svg PUBLIC "-//W3C//DTD SVG 20010904//EN"
 "http://www.w3.org/TR/2001/REC-SVG-20010904/DTD/svg10.dtd">
<svg version="1.0" xmlns="http://www.w3.org/2000/svg"
 width="800.000000pt" height="800.000000pt" viewBox="0 0 800.000000 800.000000"
 preserveAspectRatio="xMidYMid meet">
<metadata>
Created by potrace 1.14, written by Peter Selinger 2001-2017
</metadata>
<g transform="translate(0.000000,800.000000) scale(0.100000,-0.100000)"
fill="#000000" stroke="none">
<path d="M0 4000 l0 -4000 4000 0 4000 0 0 4000 0 4000 -4000 0 -4000 0 0
-4000z m6300 2185 c307 -42 548 -122 730 -240 215 -139 354 -321 411 -540 30
-115 38 -342 14 -456 -68 -339 -347 -620 -758 -764 -43 -15 -76 -29 -75 -31 2
-1 45 -12 96 -23 373 -81 685 -265 833 -490 99 -151 142 -317 142 -541 0 -327
-97 -562 -323 -788 -243 -243 -585 -387 -1002 -424 -303 -26 -1136 46 -1453
127 -263 67 -380 214 -427 540 -9 65 -13 229 -13 580 0 502 5 611 56 1485 16
278 32 611 35 740 7 291 -3 363 -69 491 l-45 86 77 47 c207 125 523 191 1051
220 154 8 609 -4 720 -19z m-3815 -66 c148 -55 309 -283 438 -619 172 -447
277 -864 417 -1650 119 -672 187 -957 285 -1200 68 -169 115 -249 239 -407 18
-23 18 -24 -22 -91 -93 -157 -204 -214 -417 -215 -161 0 -256 41 -367 162 -65
70 -147 228 -203 390 -32 95 -114 411 -131 505 l-7 39 -66 -7 c-349 -34 -845
-56 -1243 -56 l-297 0 -7 -57 c-5 -32 -8 -157 -8 -278 0 -236 12 -349 59 -544
14 -57 24 -106 21 -108 -2 -2 -39 -13 -82 -24 -152 -39 -427 -23 -552 32 -106
46 -184 145 -223 281 -22 77 -24 100 -23 308 0 180 5 254 23 370 109 715 454
1601 869 2235 217 332 430 581 627 733 235 182 505 263 670 201z"/>
<path d="M5537 5665 c-60 -7 -130 -19 -156 -25 l-48 -11 -7 -207 c-7 -224 -25
-577 -56 -1097 -41 -702 -45 -804 -45 -1250 0 -319 4 -468 12 -486 10 -22 21
-27 90 -38 200 -32 442 -61 593 -71 258 -18 400 3 570 87 78 38 109 60 175
127 136 137 186 265 187 481 0 197 -39 317 -138 425 -124 133 -269 195 -549
234 -141 20 -392 36 -566 36 -190 0 -243 21 -292 115 -26 51 -34 195 -17 321
6 49 12 89 13 90 1 1 99 7 217 13 496 27 679 63 859 168 177 103 262 251 278
478 16 249 -75 414 -287 518 -159 79 -317 108 -575 106 -82 -1 -199 -7 -258
-14z"/>
<path d="M2098 5303 c-306 -322 -704 -1103 -867 -1700 l-20 -73 47 0 c118 0
715 22 977 35 291 15 385 23 385 32 0 15 -86 516 -116 673 -83 441 -151 702
-231 884 -39 89 -104 206 -114 206 -3 0 -31 -26 -61 -57z"/>
</g>
</svg>
